<mxfile host="Electron" agent="Mozilla/5.0 (Windows NT 10.0; Win64; x64) AppleWebKit/537.36 (KHTML, like Gecko) draw.io/28.2.5 Chrome/138.0.7204.251 Electron/37.6.1 Safari/537.36" version="28.2.5">
  <diagram name="Page-1" id="AFCoPDnjI2vHR3p6hm-f">
    <mxGraphModel dx="868" dy="522" grid="1" gridSize="10" guides="1" tooltips="1" connect="1" arrows="1" fold="1" page="1" pageScale="1" pageWidth="827" pageHeight="1169" math="0" shadow="0">
      <root>
        <mxCell id="0" />
        <mxCell id="1" parent="0" />
        <mxCell id="xxC-9odcEMKhi0cs_MED-1" value="HAMEG&lt;div&gt;Power supply&lt;/div&gt;" style="rounded=0;whiteSpace=wrap;html=1;fontFamily=Tahoma;" parent="1" vertex="1">
          <mxGeometry x="160" y="40" width="120" height="60" as="geometry" />
        </mxCell>
        <mxCell id="xxC-9odcEMKhi0cs_MED-2" value="Danica&lt;div&gt;Power supply&lt;/div&gt;" style="rounded=0;whiteSpace=wrap;html=1;fontFamily=Tahoma;" parent="1" vertex="1">
          <mxGeometry x="320" y="40" width="120" height="60" as="geometry" />
        </mxCell>
        <mxCell id="xxC-9odcEMKhi0cs_MED-3" value="Nordic transducer" style="rounded=0;whiteSpace=wrap;html=1;fontFamily=Tahoma;" parent="1" vertex="1">
          <mxGeometry x="190" y="220" width="160" height="80" as="geometry" />
        </mxCell>
        <mxCell id="xxC-9odcEMKhi0cs_MED-4" value="12 V" style="text;html=1;align=center;verticalAlign=middle;whiteSpace=wrap;rounded=0;fontFamily=Tahoma;fontSize=8;" parent="1" vertex="1">
          <mxGeometry x="160" y="80" width="60" height="20" as="geometry" />
        </mxCell>
        <mxCell id="xxC-9odcEMKhi0cs_MED-5" value="GND" style="text;html=1;align=center;verticalAlign=middle;whiteSpace=wrap;rounded=0;fontFamily=Tahoma;fontSize=8;" parent="1" vertex="1">
          <mxGeometry x="220" y="80" width="60" height="20" as="geometry" />
        </mxCell>
        <mxCell id="xxC-9odcEMKhi0cs_MED-6" value="GND" style="text;html=1;align=center;verticalAlign=middle;whiteSpace=wrap;rounded=0;fontFamily=Tahoma;fontSize=8;" parent="1" vertex="1">
          <mxGeometry x="320" y="80" width="60" height="20" as="geometry" />
        </mxCell>
        <mxCell id="xxC-9odcEMKhi0cs_MED-7" value="Vcc" style="text;html=1;align=center;verticalAlign=middle;whiteSpace=wrap;rounded=0;fontFamily=Tahoma;fontSize=8;" parent="1" vertex="1">
          <mxGeometry x="380" y="80" width="60" height="20" as="geometry" />
        </mxCell>
        <mxCell id="xxC-9odcEMKhi0cs_MED-9" value="12 V" style="text;html=1;align=center;verticalAlign=middle;whiteSpace=wrap;rounded=0;fontFamily=Tahoma;fontSize=8;" parent="1" vertex="1">
          <mxGeometry x="250" y="220" width="40" height="20" as="geometry" />
        </mxCell>
        <mxCell id="xxC-9odcEMKhi0cs_MED-10" value="GND" style="text;html=1;align=center;verticalAlign=middle;whiteSpace=wrap;rounded=0;fontFamily=Tahoma;fontSize=8;" parent="1" vertex="1">
          <mxGeometry x="310" y="220" width="40" height="20" as="geometry" />
        </mxCell>
        <mxCell id="xxC-9odcEMKhi0cs_MED-11" value="Motor" style="rounded=0;whiteSpace=wrap;html=1;fontFamily=Tahoma;" parent="1" vertex="1">
          <mxGeometry x="350" y="220" width="80" height="80" as="geometry" />
        </mxCell>
        <mxCell id="xxC-9odcEMKhi0cs_MED-12" value="SIGNAL" style="text;html=1;align=center;verticalAlign=middle;whiteSpace=wrap;rounded=0;fontFamily=Tahoma;fontSize=8;" parent="1" vertex="1">
          <mxGeometry x="190" y="220" width="40" height="20" as="geometry" />
        </mxCell>
        <mxCell id="xxC-9odcEMKhi0cs_MED-13" value="VCC" style="text;html=1;align=center;verticalAlign=middle;whiteSpace=wrap;rounded=0;fontFamily=Tahoma;fontSize=8;" parent="1" vertex="1">
          <mxGeometry x="390" y="220" width="40" height="20" as="geometry" />
        </mxCell>
        <mxCell id="xxC-9odcEMKhi0cs_MED-14" value="GND" style="text;html=1;align=center;verticalAlign=middle;whiteSpace=wrap;rounded=0;fontFamily=Tahoma;fontSize=8;" parent="1" vertex="1">
          <mxGeometry x="350" y="220" width="40" height="20" as="geometry" />
        </mxCell>
        <mxCell id="xxC-9odcEMKhi0cs_MED-16" value="" style="endArrow=none;html=1;rounded=0;exitX=0.5;exitY=0;exitDx=0;exitDy=0;entryX=0.5;entryY=1;entryDx=0;entryDy=0;" parent="1" source="xxC-9odcEMKhi0cs_MED-9" target="xxC-9odcEMKhi0cs_MED-4" edge="1">
          <mxGeometry width="50" height="50" relative="1" as="geometry">
            <mxPoint x="250" y="160" as="sourcePoint" />
            <mxPoint x="300" y="110" as="targetPoint" />
            <Array as="points">
              <mxPoint x="270" y="140" />
              <mxPoint x="190" y="140" />
            </Array>
          </mxGeometry>
        </mxCell>
        <mxCell id="xxC-9odcEMKhi0cs_MED-17" value="" style="endArrow=none;html=1;rounded=0;entryX=0.5;entryY=1;entryDx=0;entryDy=0;exitX=0.5;exitY=0;exitDx=0;exitDy=0;" parent="1" source="xxC-9odcEMKhi0cs_MED-10" edge="1">
          <mxGeometry width="50" height="50" relative="1" as="geometry">
            <mxPoint x="330" y="160" as="sourcePoint" />
            <mxPoint x="250" y="100" as="targetPoint" />
            <Array as="points">
              <mxPoint x="330" y="130" />
              <mxPoint x="250" y="130" />
            </Array>
          </mxGeometry>
        </mxCell>
        <mxCell id="xxC-9odcEMKhi0cs_MED-19" value="" style="endArrow=oval;html=1;rounded=0;exitX=0.5;exitY=1;exitDx=0;exitDy=0;startArrow=none;startFill=0;endFill=1;" parent="1" source="xxC-9odcEMKhi0cs_MED-6" edge="1">
          <mxGeometry width="50" height="50" relative="1" as="geometry">
            <mxPoint x="410" y="150" as="sourcePoint" />
            <mxPoint x="330" y="130" as="targetPoint" />
            <Array as="points">
              <mxPoint x="350" y="130" />
            </Array>
          </mxGeometry>
        </mxCell>
        <mxCell id="xxC-9odcEMKhi0cs_MED-20" value="" style="endArrow=oval;html=1;rounded=0;exitX=0.5;exitY=0;exitDx=0;exitDy=0;startArrow=none;startFill=0;endFill=1;" parent="1" source="xxC-9odcEMKhi0cs_MED-14" edge="1">
          <mxGeometry width="50" height="50" relative="1" as="geometry">
            <mxPoint x="470" y="180" as="sourcePoint" />
            <mxPoint x="350" y="130" as="targetPoint" />
            <Array as="points">
              <mxPoint x="370" y="130" />
            </Array>
          </mxGeometry>
        </mxCell>
        <mxCell id="xxC-9odcEMKhi0cs_MED-21" value="" style="endArrow=none;html=1;rounded=0;exitX=0.25;exitY=0;exitDx=0;exitDy=0;entryX=0.5;entryY=1;entryDx=0;entryDy=0;" parent="1" source="xxC-9odcEMKhi0cs_MED-27" target="xxC-9odcEMKhi0cs_MED-7" edge="1">
          <mxGeometry width="50" height="50" relative="1" as="geometry">
            <mxPoint x="490" y="150" as="sourcePoint" />
            <mxPoint x="540" y="100" as="targetPoint" />
          </mxGeometry>
        </mxCell>
        <mxCell id="xxC-9odcEMKhi0cs_MED-22" value="&lt;font&gt;Oscilliscope&lt;/font&gt;" style="rounded=0;whiteSpace=wrap;html=1;fontFamily=Tahoma;" parent="1" vertex="1">
          <mxGeometry x="540" y="120" width="80" height="80" as="geometry" />
        </mxCell>
        <mxCell id="xxC-9odcEMKhi0cs_MED-24" value="Port 1" style="text;html=1;align=center;verticalAlign=middle;whiteSpace=wrap;rounded=0;fontFamily=Tahoma;fontSize=8;" parent="1" vertex="1">
          <mxGeometry x="540" y="120" width="40" height="20" as="geometry" />
        </mxCell>
        <mxCell id="xxC-9odcEMKhi0cs_MED-25" value="" style="endArrow=oval;html=1;rounded=0;exitX=0;exitY=0.5;exitDx=0;exitDy=0;endFill=1;" parent="1" source="xxC-9odcEMKhi0cs_MED-24" edge="1">
          <mxGeometry width="50" height="50" relative="1" as="geometry">
            <mxPoint x="160" y="300" as="sourcePoint" />
            <mxPoint x="410" y="110" as="targetPoint" />
            <Array as="points">
              <mxPoint x="520" y="130" />
              <mxPoint x="520" y="110" />
            </Array>
          </mxGeometry>
        </mxCell>
        <mxCell id="xxC-9odcEMKhi0cs_MED-27" value="&lt;font&gt;Ammeter&lt;/font&gt;" style="rounded=0;whiteSpace=wrap;html=1;fontFamily=Tahoma;" parent="1" vertex="1">
          <mxGeometry x="380" y="130" width="120" height="40" as="geometry" />
        </mxCell>
        <mxCell id="xxC-9odcEMKhi0cs_MED-28" value="" style="endArrow=none;html=1;rounded=0;exitX=0.25;exitY=0;exitDx=0;exitDy=0;entryX=0.25;entryY=1;entryDx=0;entryDy=0;" parent="1" target="xxC-9odcEMKhi0cs_MED-27" edge="1">
          <mxGeometry width="50" height="50" relative="1" as="geometry">
            <mxPoint x="409.78" y="220" as="sourcePoint" />
            <mxPoint x="409.78" y="190" as="targetPoint" />
          </mxGeometry>
        </mxCell>
        <mxCell id="xxC-9odcEMKhi0cs_MED-29" value="Data&lt;br&gt;out" style="text;html=1;align=center;verticalAlign=middle;whiteSpace=wrap;rounded=0;fontFamily=Tahoma;fontSize=8;" parent="1" vertex="1">
          <mxGeometry x="460" y="140" width="40" height="20" as="geometry" />
        </mxCell>
        <mxCell id="xxC-9odcEMKhi0cs_MED-31" value="" style="endArrow=none;html=1;rounded=0;entryX=1;entryY=0.5;entryDx=0;entryDy=0;exitX=0;exitY=0.5;exitDx=0;exitDy=0;" parent="1" source="xxC-9odcEMKhi0cs_MED-32" target="xxC-9odcEMKhi0cs_MED-29" edge="1">
          <mxGeometry width="50" height="50" relative="1" as="geometry">
            <mxPoint x="530" y="180" as="sourcePoint" />
            <mxPoint x="410.22" y="190" as="targetPoint" />
            <Array as="points">
              <mxPoint x="520" y="190" />
              <mxPoint x="520" y="150" />
            </Array>
          </mxGeometry>
        </mxCell>
        <mxCell id="xxC-9odcEMKhi0cs_MED-32" value="Port 2" style="text;html=1;align=center;verticalAlign=middle;whiteSpace=wrap;rounded=0;fontFamily=Tahoma;fontSize=8;" parent="1" vertex="1">
          <mxGeometry x="540" y="180" width="40" height="20" as="geometry" />
        </mxCell>
      </root>
    </mxGraphModel>
  </diagram>
</mxfile>
